<?xml version="1.0" encoding="UTF-8" standalone="no"?>
<!-- Created with Inkscape (http://www.inkscape.org/) -->

<svg
   xmlns:dc="http://purl.org/dc/elements/1.1/"
   xmlns:cc="http://creativecommons.org/ns#"
   xmlns:rdf="http://www.w3.org/1999/02/22-rdf-syntax-ns#"
   xmlns:svg="http://www.w3.org/2000/svg"
   xmlns="http://www.w3.org/2000/svg"
   xmlns:sodipodi="http://sodipodi.sourceforge.net/DTD/sodipodi-0.dtd"
   xmlns:inkscape="http://www.inkscape.org/namespaces/inkscape"
   version="1.1"
   id="svg96"
   width="1440"
   height="1440"
   viewBox="0 0 1440 1440"
   sodipodi:docname="image10.png.svg"
   inkscape:version="0.92.5 (2060ec1f9f, 2020-04-08)">
  <metadata
     id="metadata102">
    <rdf:RDF>
      <cc:Work
         rdf:about="">
        <dc:format>image/svg+xml</dc:format>
        <dc:type
           rdf:resource="http://purl.org/dc/dcmitype/StillImage" />
        <dc:title></dc:title>
      </cc:Work>
    </rdf:RDF>
  </metadata>
  <defs
     id="defs100" />
  <sodipodi:namedview
     pagecolor="#ffffff"
     bordercolor="#666666"
     borderopacity="1"
     objecttolerance="10"
     gridtolerance="10"
     guidetolerance="10"
     inkscape:pageopacity="0"
     inkscape:pageshadow="2"
     inkscape:window-width="1366"
     inkscape:window-height="693"
     id="namedview98"
     showgrid="false"
     inkscape:zoom="0.34513889"
     inkscape:cx="696.82093"
     inkscape:cy="720"
     inkscape:window-x="0"
     inkscape:window-y="0"
     inkscape:window-maximized="1"
     inkscape:current-layer="svg96" />
  <path
     style="fill:#000000"
     d="m 741.2406,1121.9696 c -10.89117,-1.2072 -20.58384,-8.7362 -25.64129,-19.9173 -1.93508,-4.2781 -2.60581,-7.7682 -3.01912,-15.71 l -0.53137,-10.2099 -4.10843,-0.5446 c -36.48279,-4.8357 -59.26424,-10.9242 -91.10785,-24.3494 -8.8169,-3.7171 -30.62114,-14.9682 -38.00058,-19.6084 -13.67838,-8.6011 -24.80474,-16.3643 -35,-24.4206 -13.70961,-10.8333 -40.80947,-37.5831 -50.81357,-50.1571 -37.65326,-47.3259 -60.81067,-99.6302 -69.06805,-156 l -2.27053,-15.49999 -10.42392,-0.59453 c -6.0414,-0.34456 -12.44027,-1.33663 -15.21985,-2.35964 -6.02086,-2.21596 -13.61617,-9.51042 -17.32133,-16.63523 -2.47504,-4.75936 -2.81395,-6.49387 -2.81571,-14.4106 -0.002,-7.4865 0.39117,-9.75675 2.33606,-13.5 3.91062,-7.52666 8.6114,-12.46177 15.26307,-16.02395 5.79431,-3.10304 7.27081,-3.43814 17.33383,-3.93401 l 11,-0.54204 1.60911,-11.5 c 6.23289,-44.5451 20.2558,-84.34512 43.14256,-122.44776 7.28416,-12.12692 8.7934,-13.50076 14.86347,-13.53 5.59641,-0.027 9.23748,2.48616 10.89988,7.52327 1.47956,4.4831 0.74769,6.57853 -6.47995,18.55309 -5.85143,9.69448 -17.25693,32.34094 -19.84384,39.4014 -0.80607,2.2 -2.90596,7.825 -4.66642,12.5 -6.7539,17.93533 -13.98037,47.20927 -15.61369,63.25 l -0.68731,6.75 h 10.11904 c 11.53988,0 10.0706,1.45012 12.15853,-12 2.00026,-12.88542 7.92795,-35.83302 12.63983,-48.93207 4.72958,-13.14823 17.23087,-39.99895 22.61249,-48.56793 9.06266,-14.43017 14.32548,-22.23285 20.36729,-30.19662 8.25519,-10.88125 41.61516,-44.32318 50.23228,-50.3557 27.12324,-18.98794 36.77743,-24.78289 55.37631,-33.23977 12.82431,-5.83119 16.14879,-7.21508 19.77042,-8.22987 1.375,-0.38528 3.85,-1.28481 5.5,-1.99896 9.13806,-3.95514 43.69218,-12.3884 56,-13.66734 l 3,-0.31174 v -10 -10 l -5.5,0.31275 c -24.51546,1.39404 -76.11888,17.55708 -100.84607,31.58665 -3.49033,1.98033 -6.51198,3.6006 -6.71477,3.6006 -0.20279,0 -4.99706,2.77287 -10.65393,6.16193 -19.29774,11.56138 -35.22667,23.8571 -54.52448,42.08807 -5.43829,5.13765 -10.19066,8.81421 -11.51139,8.90552 -6.89384,0.47666 -10.76463,-1.35058 -13.31705,-6.28642 -3.54682,-6.85879 0.007,-12.16124 19.77727,-29.51221 27.73719,-24.34243 57.35721,-43.02579 89.29042,-56.32153 10.86375,-4.52325 33.90104,-12.45267 39.46718,-13.58459 1.90694,-0.3878 4.15694,-1.08275 5,-1.54435 2.52456,-1.38227 33.3661,-7.33322 44.6702,-8.61921 l 4.13737,-0.47068 0.45584,-9.65827 c 0.60297,-12.77577 3.29091,-19.82058 10.1732,-26.66285 7.757,-7.71188 11.12386,-8.99541 23.59621,-8.99541 11.86226,0 16.15883,1.53847 23.3364,8.35602 6.8664,6.52201 8.96656,12.01458 9.60475,25.11948 l 0.55885,11.47551 4.5,0.83222 c 2.475,0.45772 9.675,1.66903 16,2.69181 14.97826,2.42204 37.35825,7.68649 42.5,9.99728 1.1,0.49436 4.25,1.55968 7,2.36737 2.75,0.80769 7.475,2.44592 10.5,3.64049 3.025,1.19458 7.46723,2.87367 9.87161,3.73133 7.21925,2.57513 36.95928,17.90161 47.12839,24.28754 20.18323,12.67452 38.98211,27.38653 56.83565,44.47959 14.14532,13.54278 34.90469,39.09107 46.33289,57.02136 7.7547,12.1668 8.5843,13.64822 17.0786,30.5 15.839,31.42287 25.6646,62.16707 30.8833,96.63427 l 2.2915,15.13427 11.5391,0.50328 c 9.4901,0.41392 12.338,0.91709 16.039,2.83382 22.5244,11.66529 25.5919,41.91598 5.7681,56.88315 -6.8783,5.19321 -12.9836,7.01121 -23.5453,7.01121 -9.8596,0 -10.2236,0.22548 -10.2221,6.33179 10e-4,5.8092 -6.5008,38.0661 -10.1128,50.1682 -8.6888,29.1123 -18.1854,51.3711 -32.1204,75.2861 -8.0032,13.7349 -10.5505,16.2204 -16.5945,16.1917 -7.0811,-0.034 -11.173,-4.2036 -11.173,-11.3858 0,-2.5785 2.0407,-7.0911 7.5163,-16.6204 13.2597,-23.0763 18.932,-35.4585 26.3281,-57.4716 6.2953,-18.7369 13.1556,-49.9572 13.1556,-59.86932 v -2.63067 h -9.8931 c -10.6686,0 -11.1069,0.22729 -11.1069,5.75936 0,9.37543 -9.9205,47.03423 -17.1865,65.24063 -28.50538,71.4267 -86.17853,129.2459 -157.22075,157.6189 -6.03332,2.4096 -11.37936,4.3811 -11.8801,4.3811 -0.50074,0 -2.32844,0.6328 -4.06156,1.4061 -6.88191,3.071 -24.52519,7.5971 -39.65113,10.1718 -4.675,0.7958 -10.075,1.7788 -12,2.1845 l -3.5,0.7376 -0.28635,10.3735 -0.28634,10.3736 2.78634,-0.6086 c 1.53249,-0.3347 6.38635,-1.0832 10.78635,-1.6633 4.4,-0.5801 10.7,-1.6876 14,-2.4611 3.3,-0.7735 8.7,-1.9518 12,-2.6184 3.3,-0.6667 6.4275,-1.591 6.95,-2.0539 0.5225,-0.463 1.7259,-0.8418 2.67421,-0.8418 2.88853,0 35.33254,-11.6303 41.69803,-14.9476 0.92277,-0.4809 4.37776,-2.1315 7.67776,-3.668 25.21197,-11.7386 55.59325,-32.8363 77,-53.4712 10.71878,-10.3322 12.95983,-11.9132 16.88721,-11.9132 7.74641,0 13.35123,8.2368 10.59903,15.5763 -2.95709,7.8859 -40.36797,39.4796 -62.98624,53.1923 -6.74481,4.0892 -30.11438,17.2314 -30.64091,17.2314 -0.1649,0 -2.67566,1.0792 -5.57945,2.3983 -2.9038,1.3191 -8.20464,3.5892 -11.77964,5.0448 -3.575,1.4555 -7.4,3.0621 -8.5,3.5701 -4.26701,1.9706 -26.4866,8.9479 -36,11.3045 -19.47559,4.8245 -24.10852,5.7484 -34,6.7807 -15.08566,1.5743 -14.20772,0.7323 -14.68129,14.08 -0.30104,8.4848 -0.86411,12.1986 -2.24722,14.8216 -7.40237,14.0385 -19.8948,20.665 -35.66285,18.9173 z m 12.16828,-25.8404 2.92308,-2.9231 v -58.442 c 0,-57.341 -0.0385,-58.491 -2.04333,-61.0398 -4.46811,-5.6802 -14.64767,-4.0491 -17.51195,2.8061 -1.1998,2.8715 -1.44472,12.7191 -1.44472,58.0887 0,59.0186 0.0181,59.2312 5.35287,62.9678 3.61476,2.5319 9.3969,1.8695 12.72405,-1.4577 z m -41.07692,-53.5769 c 0,-5.775 -0.3375,-10.5027 -0.75,-10.5059 -2.76304,-0.022 -22.30213,-3.3642 -29.75,-5.0893 -14.7363,-3.4131 -33.81624,-9.5775 -46,-14.8617 -36.08215,-15.6492 -61.87216,-33.2156 -89.50753,-60.9666 -23.23251,-23.3296 -38.56947,-44.2792 -51.87627,-70.8605 -13.00177,-25.9721 -21.60998,-51.6344 -26.06918,-77.716 -1.22245,-7.14999 -2.41669,-14.01249 -2.65388,-15.24999 -0.41336,-2.15669 -0.85091,-2.25 -10.55029,-2.25 h -10.11904 l 0.68486,6.75 c 1.99782,19.69059 11.86762,56.04549 21.10797,77.74999 3.29806,7.7468 14.75682,30.0867 19.2348,37.5 22.50937,37.2644 54.9049,71.4892 90.92469,96.0587 5.59688,3.8177 10.41439,6.9413 10.70559,6.9413 0.29121,0 2.23695,1.1626 4.32387,2.5836 3.76461,2.5634 32.03806,16.8415 37.79441,19.0863 20.61086,8.0374 28.32013,10.5211 45.5,14.6588 13.21679,3.1832 29.06238,6.159 34.75,6.5261 2.1997,0.142 2.25,-0.09 2.25,-10.3548 z m -0.21922,-45.75 -0.28078,-12.25 -9,-1.5666 c -20.42471,-3.5553 -38.91997,-9.7646 -61,-20.4792 -65.01479,-31.5493 -113.15527,-94.276 -126.59635,-164.9542 -1.04596,-5.49999 -2.11304,-10.56249 -2.37131,-11.24999 -0.33837,-0.90075 -3.69676,-1.25 -12.02001,-1.25 -11.44745,0 -11.54634,0.0201 -11.09181,2.25 0.25224,1.2375 0.73361,4.725 1.06971,7.75 1.68776,15.19029 9.68435,41.99859 18.49381,61.99999 13.56128,30.7901 28.79132,52.874 53.47014,77.5329 27.28192,27.2599 54.64316,45.4555 87.04582,57.8868 3.85,1.477 7.9,3.0916 9,3.5878 5.39507,2.434 25.38972,7.7088 36.5,9.6292 4.675,0.808 10.075,1.8385 12,2.2899 1.925,0.4513 3.85135,0.8775 4.28078,0.947 0.42943,0.07 0.65443,-5.3861 0.5,-12.1236 z m 82.1218,9.6226 c 5.82858,-0.8652 11.27242,-1.9188 12.09742,-2.3412 0.825,-0.4225 3.3,-1.0936 5.5,-1.4915 6.18564,-1.1185 26.90264,-8.243 38,-13.0681 38.86655,-16.8989 72.32909,-42.3606 99.18712,-75.4718 19.66736,-24.2463 37.49733,-58.6583 46.37106,-89.4964 2.78329,-9.6725 7.94186,-34.45768 7.94186,-38.158 0,-1.05258 -2.609,-1.34559 -11.98099,-1.34559 -13.34513,0 -11.83489,-0.83934 -13.49485,7.5 -3.72371,18.70719 -4.826,22.79679 -10.24244,37.99999 -4.00388,11.2383 -7.51536,19.3242 -13.42235,30.9078 -14.36858,28.1766 -38.7472,56.8875 -65.85941,77.5632 -27.85068,21.2389 -63.92832,37.4391 -97,43.5568 -13.2663,2.454 -12,0.9901 -12,13.8729 0,6.1963 0.31399,11.58 0.69777,11.9637 0.38377,0.3838 1.35243,0.4466 2.15257,0.1395 0.80015,-0.307 6.22366,-1.2661 12.05224,-2.1313 z M 688.05247,954.3218 c -7.74938,-9.472 -15.87467,-22.6355 -22.85064,-37.0195 l -5.94102,-12.25 h -17.8423 c -21.19057,0 -24.31977,-0.8184 -26.93392,-7.0439 -0.90895,-2.1647 -2.22412,-3.9403 -2.92261,-3.9459 -1.81031,-0.014 -19.24527,8.86 -19.15475,9.7498 0.14774,1.4525 18.83271,17.5323 27.55043,23.7093 9.8323,6.9668 25.91006,16.4451 34.3743,20.2646 3.025,1.3651 6.99782,3.1764 8.82849,4.0252 4.28015,1.9845 29.54854,10.0879 30.05891,9.6397 0.21307,-0.1872 -2.11203,-3.3953 -5.16689,-7.1293 z m 125.27949,3.0041 c 19.93001,-6.5763 39.87417,-16.6007 57.53513,-28.9186 8.51587,-5.9394 28.47041,-23.2509 28.43689,-24.6703 -0.0258,-1.0918 -16.56815,-9.6847 -18.64428,-9.6847 -0.50278,0 -1.34471,1.4528 -1.87094,3.2285 -0.56116,1.8935 -2.36185,4.1678 -4.35468,5.5 -3.24567,2.1697 -4.27859,2.2715 -23.05756,2.2715 h -19.65966 l -1.81551,4.25 c -7.17168,16.7885 -17.34491,33.9523 -26.52388,44.75 -6.56757,7.7257 -6.7917,8.2172 -3.3793,7.4093 1.55859,-0.369 7.55879,-2.2301 13.33379,-4.1357 z m -85.35032,-4.9995 c 1.73233,-1.2021 4.31983,-2.4793 5.75,-2.8383 l 2.60032,-0.6526 v -21.8916 -21.8916 h -27.987 -27.98701 l 2.21745,4.75 c 3.72419,7.9776 13.77181,24.4033 18.88116,30.8666 2.65939,3.3641 7.82188,8.9104 11.47221,12.3251 l 6.63695,6.2085 2.63312,-2.3453 c 1.44822,-1.2899 4.05048,-3.3288 5.7828,-4.5308 z m 53.27351,-2.4402 c 4.44335,-4.4914 10.96105,-12.4788 14.48377,-17.75 6.12195,-9.1604 14.59304,-24.3774 14.59304,-26.2141 0,-0.4784 -12.38378,-0.8698 -27.5195,-0.8698 h -27.5195 l 0.2695,21.7132 0.2695,21.7132 3.07595,0.8815 c 1.69177,0.4849 5.29177,2.6155 8,4.7348 2.70823,2.1192 5.22653,3.8766 5.59624,3.9052 0.3697,0.029 4.30765,-3.6226 8.751,-8.114 z M 612.74767,860.5523 c 1.44989,-24.0364 5.8341,-41.081 15.61666,-60.713 l 4.83996,-9.71302 -0.589,-14.53698 -0.58901,-14.53699 h -40.83031 -40.83032 l -2.58729,5.10577 c -2.79781,5.52123 -10.3911,13.54251 -14.18561,14.98518 -2.59655,0.9872 -2.56195,2.32816 0.35784,13.86915 0.75975,3.00309 1.38137,6.19299 1.38137,7.08869 0,1.7389 4.23289,16.1369 6.45346,21.9512 8.54429,22.3724 18.01088,39.8967 31.17726,57.7145 l 5.33113,7.2146 16.86501,-8.2146 16.86501,-8.2145 z m 313.48074,10.4012 c 17.12196,-25.719 30.09889,-58.7282 33.45245,-85.09243 0.51341,-4.03622 0.33022,-4.77583 -1.31201,-5.29705 -3.28488,-1.04258 -10.72764,-9.18073 -13.18431,-14.41615 l -2.35258,-5.01358 -41.60178,-0.041 -41.60179,-0.041 -0.64222,8.25 c -1.01654,13.05846 -0.78632,20.11627 0.72666,22.27749 5.52109,7.88662 13.13804,25.94122 16.67655,39.52872 1.61692,6.2088 2.36354,12.7914 2.82077,24.8692 l 0.62181,16.4255 16.5,8.2579 16.5,8.258 2.83739,-3.1834 c 1.56056,-1.7509 6.31214,-8.4029 10.55906,-14.7822 z m -70.14907,-9.1512 c -0.50502,-20.9189 -1.76732,-27.7148 -7.87479,-42.3962 -10.96424,-26.35638 -34.98772,-50.23048 -60.20547,-59.83114 -3.94192,-1.50072 -7.94626,-3.13085 -8.89854,-3.62249 -7.54385,-3.89475 -37.25998,-5.63771 -51.76858,-3.03642 -34.16959,6.12636 -63.62508,28.36839 -79.52484,60.04975 -8.311,16.5602 -11.4648,31.3617 -11.47114,53.8365 l -0.004,14.25 H 746.43804 856.5441 Z m -200.24738,-97.74999 2.87418,-3 h -3.68709 c -3.4301,0 -3.68709,0.2091 -3.68709,3 0,1.65 0.36581,3 0.81291,3 0.4471,0 2.10629,-1.35 3.68709,-3 z m 184.5,-1.05902 c 0,-1.51366 -0.69884,-1.94098 -3.17431,-1.94098 h -3.17432 l 2.31968,2.46918 c 2.53296,2.69621 4.02895,2.50009 4.02895,-0.5282 z m -316.11073,-3.50126 c 3.83331,-3.22552 4.88394,-8.04381 2.6823,-12.30131 -3.24686,-6.27875 -1.78656,-6.13841 -63.87403,-6.13841 h -56.40177 l -3.32079,2.25 c -5.948,4.03006 -6.35712,10.52171 -1.00069,15.87813 l 2.87186,2.87187 h 58.0002 58.0002 z m 566.15677,-0.18972 c 2.1699,-1.939 3.24,-3.96153 3.6284,-6.85815 0.4785,-3.56855 0.1529,-4.55368 -2.4793,-7.5 l -3.0301,-3.39185 -57.8326,-0.24819 c -44.71035,-0.19187 -58.38726,0.0355 -60.2777,1.00224 -1.34489,0.68774 -3.29469,2.70487 -4.3329,4.48252 -2.43811,4.17462 -1.52555,8.71023 2.51118,12.4811 l 2.97849,2.78233 h 57.87843 57.8785 z m -457.76776,-29 c 0.66398,-14.8663 3.40009,-43.34493 4.73175,-49.25 0.55814,-2.475 1.67092,-8.325 2.47285,-13 0.80193,-4.675 2.13053,-11.425 2.95246,-15 2.42937,-10.56669 2.48741,-10.4213 -5.18534,-12.98892 -14.22028,-4.7587 -32.27828,-12.24644 -45.42624,-18.83596 l -13.67625,-6.85429 -7.40956,10.08958 c -8.70265,11.85039 -14.85546,22.28913 -21.61335,36.66883 -5.40224,11.49509 -12.22832,31.10552 -14.06983,40.42076 -0.65237,3.3 -1.56544,7.35 -2.02905,9 -0.4636,1.65 -1.08121,4.69034 -1.37247,6.7563 -0.47959,3.40187 -0.24457,3.90368 2.49072,5.31815 4.61221,2.38507 11.61382,10.22445 13.46797,15.07949 l 1.65978,4.34606 h 41.24088 41.24089 z m 57.2576,10.36253 c 1.08948,-0.76311 3.88961,-1.95933 6.2225,-2.65829 2.33289,-0.69895 4.24162,-1.50391 4.24162,-1.7888 0,-0.28489 -2.90111,-3.37661 -6.4469,-6.87048 -12.27871,-12.0989 -19.30937,-25.48712 -22.64723,-43.12629 -1.43918,-7.60541 -0.65204,-23.49656 1.51722,-30.6307 1.52288,-5.00834 1.06068,-6.48034 -2.04809,-6.52266 -0.61875,-0.008 -2.48562,-0.28743 -4.1486,-0.62003 -2.93573,-0.58715 -3.06917,-0.44797 -4.5916,4.78901 -1.86725,6.42313 -4.15569,19.20719 -6.14277,34.31571 -0.79569,6.05 -1.88478,13.7 -2.42018,17 -0.5354,3.3 -1.28543,13.0875 -1.66673,21.75 l -0.69326,15.75 h 18.42156 c 14.09222,0 18.88711,-0.32608 20.40246,-1.38747 z m 149.97407,-4.36253 c -0.25266,-3.1625 -0.7052,-11.6 -1.00565,-18.75 -0.30045,-7.15 -0.99,-15.475 -1.53235,-18.5 -0.54234,-3.025 -1.62827,-10.225 -2.41317,-16 -1.67624,-12.33309 -4.00396,-24.74955 -5.78135,-30.83871 -1.26589,-4.33681 -1.26816,-4.33844 -5.17656,-3.71346 -2.15056,0.34389 -4.24592,0.8328 -4.65635,1.08646 -0.41044,0.25366 0.10143,3.72472 1.13748,7.71346 2.60483,10.02845 2.5437,24.44663 -0.14875,35.08564 -3.73551,14.76055 -9.74994,25.23322 -21.03973,36.63554 l -6.93612,7.00525 6.2713,2.92691 c 6.16267,2.87621 6.57849,2.9284 24.00597,3.01291 l 17.73467,0.086 z m 104.78766,1.37062 c 2.28949,-5.56812 7.48327,-11.64914 12.05005,-14.10851 3.4453,-1.85542 3.54067,-2.06133 2.99392,-6.46429 -0.3106,-2.5013 -0.99266,-6.34782 -1.5157,-8.54782 -0.52303,-2.2 -1.58738,-6.7957 -2.36522,-10.21267 -1.6101,-7.07301 -4.87485,-17.2866 -7.01258,-21.93846 -0.79644,-1.73312 -1.44808,-3.44531 -1.44808,-3.80486 0,-0.67334 -2.30204,-5.93204 -6.80452,-15.54401 -3.26008,-6.95966 -10.77621,-19.99653 -15.27801,-26.5 -6.42254,-9.27824 -11.33923,-15.5 -12.24871,-15.5 -0.49739,0 -7.71383,3.33485 -16.03655,7.41078 -13.45401,6.5889 -40.51718,17.42031 -47.83776,19.14596 -2.93093,0.69089 -2.95974,1.22124 -0.59458,10.94326 4.64047,19.07462 10.36805,65.29035 10.75105,86.75 l 0.0491,2.75 41.75,-0.004 41.75,-0.004 1.79761,-4.37188 z M 756.59459,726.52082 c 12.38609,-1.32311 29.15389,-13.37727 36.10559,-25.95587 19.4228,-35.14417 -6.10049,-78.51264 -46.2064,-78.51264 -39.23631,0 -64.60611,40.30696 -47.62143,75.65983 7.41785,15.43994 23.1654,27.24701 38.95961,29.21084 3.85,0.4787 8.35,0.72255 10,0.54189 1.65,-0.18066 5.59318,-0.60549 8.76263,-0.94405 z m -243.88745,-9.26654 c 0.27127,-0.43892 1.22843,-5.05142 2.12704,-10.25 0.89861,-5.19859 2.24494,-11.47697 2.99185,-13.95197 7.05166,-23.36668 9.28417,-29.39688 16.10467,-43.5 25.64221,-53.02183 71.9685,-96.15072 125.40126,-116.74618 16.68152,-6.42982 25.92834,-9.13421 40.75,-11.91802 l 12.25,-2.3008 v -11.86819 -11.8682 l -4.25,0.45755 c -5.40176,0.58154 -21.31345,3.54402 -25.25,4.7011 -8.35399,2.45551 -32.13559,10.31429 -35.77363,11.82162 -46.32457,19.19343 -87.94829,53.07248 -115.37111,93.90472 -8.1124,12.07928 -8.334,12.45176 -15.48389,26.02772 -11.8038,22.41264 -23.03941,55.80786 -25.3304,75.28868 -0.35575,3.025 -0.88375,6.7375 -1.17335,8.25 l -0.52653,2.75 h 11.52044 c 6.33624,0 11.74238,-0.35912 12.01365,-0.79803 z m 490.62486,-0.60774 c 0,-0.77318 -1.099,-7.027 -2.4423,-13.89738 -14.4656,-73.98922 -56.7042,-134.64133 -121.06727,-173.84541 -11.99568,-7.30667 -38.35238,-19.85144 -41.70808,-19.85144 -0.76032,0 -1.80989,-0.38478 -2.33239,-0.85506 -0.5225,-0.47029 -5,-2.07583 -9.95,-3.56787 -4.95,-1.49204 -11.025,-3.32589 -13.5,-4.07522 -3.97839,-1.20449 -12.6167,-2.95843 -27,-5.48215 -3.05658,-0.53631 -4.73566,-0.42554 -5.23469,0.34536 -1.31176,2.0264 -0.89343,21.29428 0.48469,22.3244 1.29705,0.96952 6.94719,2.39615 17.25,4.35554 8.73651,1.66151 20.4707,5.30324 34.5,10.70714 46.62542,17.95951 87.13891,52.0837 114.85044,96.73763 4.57982,7.37985 15.46861,29.25306 16.68186,33.51023 0.39186,1.375 1.04575,2.95 1.45308,3.5 1.26527,1.70845 7.01462,19.20841 7.01462,21.35123 0,1.1169 0.39808,2.27676 0.88461,2.57746 0.48654,0.30069 1.18773,2.68975 1.5582,5.30901 0.37047,2.61927 1.34501,7.6873 2.16564,11.2623 0.82063,3.575 1.70302,7.5125 1.96086,8.75 0.45464,2.18205 0.83063,2.25 12.44974,2.25 9.62619,0 11.98099,-0.2763 11.98099,-1.40577 z m 44,-0.10081 c 0,-0.82862 -0.6644,-5.89112 -1.4765,-11.25 -4.2937,-28.33529 -13.2517,-57.25053 -25.9438,-83.74342 -15.7835,-32.9457 -35.54219,-60.44053 -62.2198,-86.58073 -31.42712,-30.79402 -63.57428,-51.38434 -105.35994,-67.48323 -19.37893,-7.46619 -44.64895,-13.76428 -67.75,-16.88546 l -4.25,-0.57422 v 10.51182 c 0,10.08994 0.0863,10.51182 2.15022,10.51182 5.10423,0 33.41149,6.11059 46.34978,10.00537 27.13878,8.16952 57.63194,22.80984 79,37.92934 29.43633,20.82839 56.29085,48.40215 74.94383,76.95104 13.36299,20.45241 27.75671,51.18238 34.01211,72.61425 0.9632,3.3 2.1814,7.35 2.7072,9 1.5597,4.89471 6.8369,31.58122 6.8369,34.57423 0,5.71882 0.3879,5.92577 11.1069,5.92577 8.1464,0 9.8931,-0.266 9.8931,-1.50658 z M 692.54525,621.80027 c 13.64777,-13.60176 20.87458,-17.50662 41.53671,-22.44351 2.24956,-0.5375 2.25,-0.54199 2.25,-22.72014 v -22.18253 l -3.31927,-1.20027 c -1.8256,-0.66014 -5.15964,-2.77554 -7.40897,-4.70089 -2.24933,-1.92534 -4.80778,-3.50062 -5.68545,-3.50062 -2.80957,0 -17.86559,16.17469 -24.73519,26.57304 -7.24208,10.96216 -14.03606,23.95694 -18.26064,34.92696 -1.48265,3.85 -3.12263,7.9 -3.64441,9 -1.16546,2.45699 -3.92042,11.6052 -3.93525,13.06751 -0.009,0.87314 5.95715,2.54408 11.70247,3.27759 0.66731,0.0852 5.84231,-4.45852 11.5,-10.09714 z m 125.53671,8.67205 c 2.3375,-0.3716 4.25,-1.08231 4.25,-1.57936 0,-1.10252 -3.71903,-12.56862 -4.97574,-15.34065 -0.49869,-1.1 -2.34193,-5.375 -4.09608,-9.5 -9.61427,-22.60853 -18.66025,-36.88651 -32.20223,-50.8273 -8.49833,-8.7486 -9.22902,-9.04552 -13.08296,-5.31638 -1.72864,1.67268 -5.28049,3.98534 -7.89299,5.13925 l -4.75,2.09802 v 21.83971 21.8397 l 2.75,0.50115 c 4.89259,0.89161 14.66948,3.7487 17.76502,5.19145 1.65825,0.77287 4.13325,1.87153 5.5,2.44146 6.06892,2.53076 16.87845,11.13668 22.46512,17.88543 4.62303,5.58467 6.48393,7.15964 8.01986,6.7876 1.1,-0.26645 3.9125,-0.78849 6.25,-1.16008 z m -167.31512,-7.67001 c 4.2606,-14.31217 14.29583,-37.90396 21.37483,-50.25 5.24619,-9.14955 11.6011,-18.42928 16.75779,-24.4705 2.56093,-3.00021 4.15109,-5.6233 3.53369,-5.8291 -2.20626,-0.73542 -26.73617,8.06732 -39.5526,14.19376 -14.84583,7.09651 -21.48931,11.09315 -35.42291,21.31003 -11.2155,8.22381 -25.37698,21.08018 -24.60177,22.33449 0.76051,1.23053 21.39928,11.01464 30.97609,14.68466 8.21229,3.1471 25.02771,9.15835 25.78138,9.21644 0.42977,0.0331 0.94884,-0.50228 1.1535,-1.18978 z m 197.07222,-0.65957 c 15.09068,-4.7323 51.44747,-20.50612 51.47976,-22.3351 0.007,-0.40956 -2.57436,-3.1861 -5.73686,-6.17008 -21.80306,-20.57229 -50.49794,-37.62137 -79.94027,-47.49654 -11.5413,-3.87104 -15.30973,-4.75055 -15.30973,-3.57314 0,0.28357 2.63427,3.77107 5.85394,7.75 12.93765,15.98862 25.76978,40.68197 34.15832,65.73213 2.03652,6.08152 2.83661,8.02048 3.29676,7.9894 0.10504,-0.007 2.89417,-0.8606 6.19808,-1.89667 z m -94.61286,-91.99164 3.10576,-2.90121 v -58.46393 c 0,-57.363 -0.0385,-58.51285 -2.04333,-61.06161 -4.46811,-5.68028 -14.64767,-4.04916 -17.51195,2.80602 -2.1036,5.03463 -2.14958,110.8992 -0.0503,115.92337 2.96179,7.08856 10.9527,8.8792 16.49987,3.69736 z m 235.10576,427.1904 c -2.13894,-1.0934 -4.23997,-3.3049 -5.40285,-5.6868 -1.75122,-3.5869 -1.78462,-4.2244 -0.4191,-8 2.07519,-5.7377 8.25266,-9.2754 13.2922,-7.6122 6.94309,2.2914 10.23049,9.4062 7.57439,16.3924 -2.0275,5.3328 -9.4657,7.7586 -15.04464,4.9066 z M 491.86676,563.94872 c -3.1226,-2.74168 -3.5348,-3.66224 -3.5348,-7.89425 0,-3.90636 0.53553,-5.36393 2.90121,-7.8964 2.50063,-2.67694 3.59463,-3.10576 7.92327,-3.10576 6.22223,0 10.76924,3.31743 11.75593,8.57695 2.06535,11.00923 -10.5036,17.81945 -19.04561,10.31946 z m 541.75644,-38.06281 c -1.1808,-2.38348 -4.2585,-8.8336 -6.8394,-14.3336 -4.7972,-10.22283 -9.3631,-19.93649 -16.4518,-35 -2.2,-4.675 -5.8082,-12.4375 -8.0182,-17.25 -2.21,-4.8125 -4.55218,-9.65 -5.20492,-10.75 -0.65273,-1.1 -1.37234,-6.65921 -1.59912,-12.3538 -0.37704,-9.46771 -0.17714,-10.95325 2.33577,-17.35823 3.40507,-8.67906 11.21817,-17.01923 19.98647,-21.33485 5.6349,-2.77343 6.7301,-2.95312 18,-2.95312 11.8095,0 12.1031,0.0556 18.5,3.5 8.6147,4.63872 14.4558,10.6308 18.3256,18.79929 2.9402,6.20644 3.1741,7.47524 3.1702,17.20071 0,11.60551 0.3068,10.62252 -10.7734,34 -2.9979,6.325 -6.9229,14.65 -8.7224,18.5 -1.7995,3.85 -5.7132,12.175 -8.6971,18.5 -2.984,6.325 -6.8742,14.57512 -8.6451,18.3336 l -3.2198,6.8336 z m 9.5416,-81.12797 c 2.9537,-1.43363 7.1672,-8.53717 7.1672,-12.08333 0,-4.446 -3.4608,-9.95094 -7.783,-12.38015 -4.731,-2.65898 -8.1854,-2.82553 -12.8356,-0.61886 -11.4126,5.41564 -10.1641,23.65805 1.8032,26.3477 3.8068,0.85558 8.2795,0.36971 11.6482,-1.26536 z"
     id="path192"
     inkscape:connector-curvature="0" />
</svg>
