<?xml version="1.0" encoding="UTF-8" standalone="no"?>
<!-- Created with Inkscape (http://www.inkscape.org/) -->

<svg
   xmlns:dc="http://purl.org/dc/elements/1.1/"
   xmlns:cc="http://creativecommons.org/ns#"
   xmlns:rdf="http://www.w3.org/1999/02/22-rdf-syntax-ns#"
   xmlns:svg="http://www.w3.org/2000/svg"
   xmlns="http://www.w3.org/2000/svg"
   xmlns:sodipodi="http://sodipodi.sourceforge.net/DTD/sodipodi-0.dtd"
   xmlns:inkscape="http://www.inkscape.org/namespaces/inkscape"
   version="1.1"
   id="svg203"
   width="1440"
   height="1440"
   viewBox="0 0 1440 1440"
   sodipodi:docname="aqui-vector2.png.svg"
   inkscape:version="0.92.5 (2060ec1f9f, 2020-04-08)"
   inkscape:export-filename="/home/bluekuro/Escritorio/cursos/Tarjeta/tarjetauno/src/assets/img/image339.png"
   inkscape:export-xdpi="96"
   inkscape:export-ydpi="96">
  <metadata
     id="metadata209">
    <rdf:RDF>
      <cc:Work
         rdf:about="">
        <dc:format>image/svg+xml</dc:format>
        <dc:type
           rdf:resource="http://purl.org/dc/dcmitype/StillImage" />
        <dc:title></dc:title>
      </cc:Work>
    </rdf:RDF>
  </metadata>
  <defs
     id="defs207" />
  <sodipodi:namedview
     pagecolor="#ffffff"
     bordercolor="#666666"
     borderopacity="1"
     objecttolerance="10"
     gridtolerance="10"
     guidetolerance="10"
     inkscape:pageopacity="0"
     inkscape:pageshadow="2"
     inkscape:window-width="1366"
     inkscape:window-height="693"
     id="namedview205"
     showgrid="false"
     inkscape:zoom="0.16388889"
     inkscape:cx="189.15254"
     inkscape:cy="720"
     inkscape:window-x="0"
     inkscape:window-y="0"
     inkscape:window-maximized="1"
     inkscape:current-layer="svg203" />
  <path
     style="fill:#000000;stroke-width:1.91892982"
     d="m 697.80496,1425.4004 c -16.78818,-5.1065 -33.66452,-20.0062 -40.75873,-35.9849 -2.37014,-5.3384 -4.66745,-16.7482 -5.88135,-29.2102 l -1.99199,-20.45 -36.77862,-6.056 c -65.30853,-10.754 -112.79544,-26.0645 -173.16036,-55.829 -40.73541,-20.0856 -79.9586,-44.6491 -112.0635,-70.1793 -22.30132,-17.7345 -85.90823,-80.5457 -100.67389,-99.4145 C 153.22905,1014.6487 113.00675,921.80344 94.560168,803.72704 L 91.26852,782.65758 73.005151,781.44674 C 49.690125,779.90095 40.554782,777.36323 30.327294,769.5911 19.941962,761.69911 8.7924609,747.11069 5.9683645,737.71905 4.7739469,733.74703 3.7965629,724.05488 3.7965629,716.18096 c 0,-12.11262 0.8985562,-16.10765 5.837169,-25.9545 6.6893891,-13.3375 16.5987151,-23.04062 30.9087411,-30.2654 8.09779,-4.08839 13.782316,-5.26963 30.280496,-6.29218 l 20.311365,-1.25886 1.387248,-6.70392 c 0.763224,-3.68716 3.241658,-18.34 5.507658,-32.56189 10.70984,-67.21335 32.84063,-131.39205 67.04005,-194.41365 24.80801,-45.71547 33.42352,-53.64583 51.03325,-46.97519 5.80968,2.20076 12.60462,12.46532 12.61481,19.05633 0,2.55368 -8.16239,19.36136 -18.14746,37.3504 -9.98487,17.98905 -21.31777,39.60285 -25.18404,48.03063 -20.7545,45.24151 -38.62454,105.3469 -45.91567,154.43595 -1.66311,11.19666 -3.02383,20.8934 -3.02383,21.54832 0,2.40771 36.00039,1.26383 37.87728,-1.20353 1.0016,-1.31684 4.22595,-14.80354 7.16521,-29.97043 14.48362,-74.74048 41.60127,-141.46691 82.4403,-202.8553 22.78693,-34.25276 40.15693,-54.34327 82.29824,-95.18746 41.20871,-39.94038 80.52437,-66.90404 136.73186,-93.77408 45.84196,-21.91479 83.506,-34.14214 136.02482,-44.15944 15.33163,-2.92433 28.95707,-5.59649 30.27876,-5.93815 1.71405,-0.44309 2.40308,-5.9381 2.40308,-19.16448 v -18.54329 l -16.82154,1.23387 c -31.235,2.2911 -89.73225,17.96446 -137.93655,36.95781 -57.87518,22.80386 -118.99001,60.27137 -165.09101,101.21214 -41.99692,37.29601 -42.09669,37.37081 -49.83941,37.37921 -17.83236,0.0194 -27.71439,-15.08668 -19.79192,-30.25485 3.10497,-5.94502 28.93053,-31.52387 47.28234,-46.83103 89.65203,-74.77767 192.03986,-121.48738 308.05961,-140.53802 l 31.64235,-5.195724 1.99356,-20.465874 c 2.36843,-24.314445 6.36146,-34.437302 18.81759,-47.705028 13.42986,-14.30492 21.28059,-17.3839975 44.2913,-17.3711242 24.82265,0.013376 31.18005,1.9745332 43.86984,13.5297202 14.79673,13.47376 18.20058,21.562945 20.5853,48.920671 1.08777,12.478768 2.1413,22.810471 2.34119,22.95933 0.1999,0.148836 14.20516,2.605549 31.12282,5.459339 43.32933,7.30906 72.01417,14.43893 108.61902,26.99826 35.26627,12.10005 53.97992,20.39565 92.27811,40.9063 169.8506,90.96359 291.0169,261.0623 320.8972,450.48979 2.228,14.12553 4.4555,27.49155 4.9497,29.70227 0.8255,3.69335 2.6563,4.12391 22.5626,5.30645 25.807,1.5331 37.4259,6.14792 49.2901,19.57714 11.303,12.79358 16.0807,24.26831 17.075,41.00921 1.162,19.56632 -4.0764,33.53686 -17.6015,46.942 -14.2035,14.07754 -24.8021,18.39347 -48.8109,19.8767 -21.8992,1.35288 -23.3876,2.23543 -23.4369,13.89558 -0.069,16.6023 -13.5488,78.17818 -24.4689,111.78395 -14.3871,44.27467 -28.4269,77.18015 -48.2174,113.00897 -21.3924,38.7289 -29.3227,46.7421 -43.9221,44.3817 -8.8385,-1.4291 -13.6173,-5.7789 -16.3565,-14.888 -2.0007,-6.6528 -1.621,-8.3558 4.7356,-21.2364 3.8009,-7.702 12.2139,-23.4848 18.6954,-35.07303 15.7224,-28.11003 27.052,-53.41272 37.5842,-83.93785 13.818,-40.048 27.6827,-99.9039 27.6976,-119.57397 v -8.14047 h -17.1649 c -12.2627,0 -17.9443,0.7766 -19.894,2.71923 -1.5353,1.52972 -3.22,8.44214 -3.8512,15.80209 -1.3514,15.76301 -13.413,63.49547 -24.3596,96.403 -4.3805,13.16841 -15.6294,39.45735 -24.9974,58.41986 -28.0525,56.78304 -59.5626,100.75554 -103.7416,144.77234 -77.6302,77.3454 -172.48567,127.6452 -280.7179,148.8589 l -36.13269,7.0819 -1.24766,18.9684 c -0.68622,10.4327 -0.89998,19.315 -0.47504,19.7384 1.06729,1.0633 45.34272,-6.218 67.01419,-11.0209 22.64206,-5.0181 79.57229,-23.925 103.3697,-34.3296 55.4034,-24.2237 114.8364,-63.4873 162.4479,-107.3191 30.3813,-27.9693 34.8675,-30.2436 47.1633,-23.9085 10.24,5.276 14.2735,18.7452 8.7659,29.2726 -5.6716,10.8405 -48.9213,49.4125 -85.7273,76.455 -48.6179,35.7212 -112.34765,68.1336 -170.63361,86.7825 -29.96709,9.5884 -71.12857,19.8303 -91.78228,22.8377 -32.19327,4.6873 -38.24105,5.8333 -39.99214,7.5781 -0.99216,0.9885 -2.50111,11.9182 -3.35321,24.2883 -1.50577,21.8597 -1.75562,22.7893 -8.90009,33.1127 -9.12467,13.1849 -20.85581,22.245 -33.73782,26.0566 -10.32509,3.0549 -29.78665,3.6339 -38.01545,1.131 z m 31.95342,-48.2273 4.66107,-4.3627 -0.52448,-113.5397 -0.5245,-113.5392 -4.33524,-4.3184 c -8.45836,-8.4256 -26.68225,-4.0181 -31.6973,7.666 -1.58069,3.6826 -2.24644,35.1579 -2.31727,109.5567 -0.10783,113.1781 0.13207,116.0528 10.14927,121.6755 6.88928,3.8669 18.71716,2.3574 24.58845,-3.1382 z m -80.01494,-101.9666 v -19.8217 l -26.43384,-4.3459 c -87.4612,-14.3794 -174.0662,-52.4311 -242.71074,-106.6407 -21.06575,-16.636 -76.26998,-71.6375 -92.96731,-92.6262 -20.27601,-25.4869 -37.24154,-51.9738 -53.32349,-83.24944 -26.4398,-51.41903 -41.41576,-94.59076 -51.98642,-149.86267 -3.38391,-17.69433 -6.97757,-33.24891 -7.9859,-34.56576 -1.23845,-1.61728 -7.72195,-2.39425 -19.97917,-2.39425 h -18.14572 l 1.23691,9.09818 c 9.01846,66.341 26.61646,123.66493 56.04608,182.56551 28.87266,57.78593 58.77923,100.38973 102.49022,146.00403 47.48632,49.5541 95.38615,84.8233 158.11528,116.4229 52.18212,26.2865 94.97859,40.9506 152.50067,52.2543 48.19642,9.4713 43.14343,10.9749 43.14343,-12.8383 z m -0.42144,-87.7961 -0.5398,-23.3402 -21.14707,-4.1678 c -42.18894,-8.3149 -77.82784,-20.7713 -118.92447,-41.5661 -43.52141,-22.0218 -79.34204,-48.153 -114.65458,-83.6404 -63.72419,-64.04009 -104.68336,-140.88379 -123.06247,-230.87839 -2.14124,-10.48497 -4.95803,-19.73755 -6.25954,-20.56129 -1.30151,-0.82372 -11.2339,-1.51088 -22.07177,-1.52702 l -19.70521,-0.0293 v 5.40869 c 0,18.04677 12.43946,68.31798 25.99647,105.05879 10.13213,27.45947 35.24332,77.17394 50.30868,99.60014 25.56892,38.06188 71.41019,87.33558 109.23864,117.41838 52.71444,41.9206 121.80478,75.3791 185.49119,89.8282 22.97821,5.2133 50.12286,10.9735 54.36869,11.5372 0.82556,0.1092 1.25811,-10.3037 0.96124,-23.1408 z m 158.06321,18.4403 c 57.93726,-9.6523 127.65976,-37.4365 180.9749,-72.1182 88.44379,-57.5327 153.10739,-137.31912 192.94279,-238.06601 13.0055,-32.89183 30.1992,-103.25829 27.1591,-111.15119 -0.8578,-2.22712 -5.2144,-2.80929 -20.8498,-2.7861 -10.8711,0.0153 -20.8102,0.69082 -22.0869,1.49929 -1.2769,0.80845 -4.5748,12.21586 -7.329,25.34977 -16.0382,76.48238 -49.6928,144.12393 -101.6263,204.25574 -64.51964,74.7048 -160.40288,130.1493 -254.64033,147.246 -20.59325,3.7361 -23.38136,6.3456 -23.38136,21.8844 0,6.0572 0.54841,14.9994 1.2187,19.8718 1.06867,7.7681 1.7195,8.7479 5.28677,7.9579 2.23743,-0.4953 12.28657,-2.27 22.33143,-3.9434 z m 32.14472,-92.5545 c 42.13511,-13.8255 83.18655,-34.1534 115.3924,-57.1402 20.36859,-14.5381 54.68627,-44.4742 53.84977,-46.9744 -0.7048,-2.1069 -24.86983,-15.66229 -31.24913,-17.5293 -3.0078,-0.88026 -4.68201,0.4334 -7.68981,6.03351 -6.67997,12.43719 -12.14885,13.85629 -53.41127,13.85979 h -36.10911 l -8.62864,18.5228 c -11.79697,25.324 -29.33607,54.0946 -44.17232,72.459 -11.35471,14.0549 -13.97939,18.1964 -11.53204,18.1964 0.49762,0 11.09517,-3.3438 23.55015,-7.4305 z m -227.71086,3.1207 c -17.4753,-22.3937 -22.8571,-29.9369 -31.77621,-44.5377 -5.79331,-9.4839 -15.41322,-26.938 -21.37762,-38.787 l -10.84435,-21.5437 -31.22391,-0.046 c -43.12866,-0.063 -45.59258,-0.8086 -57.25682,-17.32551 l -2.96347,-4.19629 -16.26114,8.05449 c -8.94367,4.43001 -17.0626,8.83131 -18.0421,9.78081 -2.41288,2.3389 1.94745,6.9365 24.8503,26.203 38.84651,32.6786 87.38049,60.3092 132.64986,75.5179 28.27161,9.4982 35.49069,11.0383 32.24546,6.8798 z m 65.13203,-11.4558 c 4.91937,-3.6907 11.19139,-7.2723 13.93783,-7.959 l 4.99356,-1.2487 v -42.1024 -42.1025 h -52.99722 -52.99723 l 1.32923,4.3097 c 1.98497,6.4357 23.17058,42.8312 32.85166,56.4371 11.85059,16.6549 38.90946,43.3111 41.72711,41.1062 1.21592,-0.9515 6.23571,-4.7497 11.15506,-8.4404 z m 114.70681,-17.4718 c 7.25485,-8.5831 16.67104,-20.7772 20.92489,-27.098 11.24833,-16.714 26.23157,-44.9825 24.66928,-46.5429 -0.73911,-0.7382 -24.76686,-1.61 -53.39504,-1.9374 l -52.05122,-0.5951 1.26295,23.4018 c 0.69462,12.8712 1.26293,31.7926 1.26293,42.0477 0,17.9293 0.17206,18.6887 4.48005,19.7659 2.46404,0.6162 9.52079,4.5289 15.68168,8.695 l 11.20163,7.5747 6.3861,-4.8531 c 3.51237,-2.6692 12.3219,-11.8755 19.57675,-20.4586 z m -349.23733,-130.58429 14.72144,-7.31429 1.24787,-17.38508 c 3.84511,-53.5684 11.5655,-83.61456 31.77537,-123.66245 8.4521,-16.74873 8.91647,-20.72562 6.45468,-55.28015 l -1.24912,-17.53288 h -78.40343 c -76.28382,0 -78.436,0.10186 -79.6041,3.7686 -2.29368,7.20057 -18.23434,26.79138 -25.92611,31.86282 -8.88619,5.85901 -9.10842,7.18131 -4.63543,27.57695 13.81346,62.98774 37.08349,115.06876 74.18622,166.03697 l 11.41268,15.67767 17.64934,-8.21692 c 9.70709,-4.5193 24.27396,-11.50837 32.37059,-15.53124 z m 618.00162,-9.09771 c 27.9041,-41.4216 52.6983,-99.79394 62.141,-146.29654 4.8905,-24.08424 4.9097,-26.91106 0.1919,-28.40291 -5.1808,-1.63828 -19.4819,-17.85313 -25.1731,-28.54157 l -4.7048,-8.83612 h -79.1753 c -75.32915,0 -79.22998,0.17199 -80.30329,3.54129 -0.62046,1.94772 -1.30304,14.23026 -1.51688,27.29452 l -0.38877,23.75324 8.00161,14.36553 c 9.75481,17.51325 17.87264,37.48012 24.48887,60.23307 3.90226,13.42013 5.40018,24.40383 6.90722,50.64747 1.05833,18.43104 2.11843,33.67907 2.35584,33.88446 0.2373,0.2054 14.27331,7.32744 31.191,15.82676 l 30.7593,15.45332 6.018,-6.67181 c 3.3099,-3.66949 11.9532,-15.4823 19.2074,-26.25071 z M 926.24594,927.75172 c -1.54843,-45.30225 -4.47598,-58.61075 -19.69838,-89.54738 -24.50329,-49.79836 -64.12199,-86.57349 -115.213,-106.9438 -25.4889,-10.16259 -41.26751,-12.7792 -76.84719,-12.74386 -50.75611,0.0503 -90.49881,13.94613 -130.52573,45.63732 -33.1387,26.23749 -62.42655,70.67341 -72.53464,110.05061 -4.25157,16.56249 -7.77449,50.33176 -7.78401,74.61439 l -0.006,16.7598 211.95129,0.002 211.95129,0.002 -1.29306,-37.83144 z M 541.1244,741.47637 l 5.5255,-5.74621 h -6.18738 c -6.43165,0 -9.30565,3.39622 -7.29397,8.61932 1.46657,3.80778 1.56615,3.77181 7.95585,-2.87311 z m 354.694,-1.91541 c 0,-3.02134 -1.28164,-3.8308 -6.06534,-3.8308 -5.94355,0 -5.99548,0.0769 -2.58573,3.8308 1.9138,2.10695 4.64319,3.83081 6.06535,3.83081 1.42214,0 2.58572,-1.72386 2.58572,-3.83081 z m -605.56251,-8.9263 c 5.35809,-6.08002 6.04191,-8.02478 5.15047,-14.64663 -1.52701,-11.34243 -6.55559,-15.22324 -21.93278,-16.92632 -7.16559,-0.79363 -57.88433,-1.48722 -112.7081,-1.5413 l -99.679592,-0.0984 -6.536368,6.51237 c -8.76296,8.7309 -8.947124,17.43435 -0.569814,26.94056 l 5.966555,6.77058 H 172.01188 284.07769 Z m 1087.90101,0.24033 c 7.9363,-9.0058 8.0539,-17.65686 0.357,-26.23994 l -5.6096,-6.25531 h -112.7792 -112.7794 l -5.6098,6.25531 c -7.6974,8.58298 -7.5799,17.23394 0.3566,26.23994 l 5.9665,6.77056 h 112.0658 112.0655 z M 496.76026,680.66225 c 2.86419,-45.61969 9.15714,-98.02539 15.77937,-131.40542 4.87247,-24.56029 6.57808,-37.04043 5.33128,-39.00974 -1.00832,-1.59268 -10.89562,-6.12311 -21.97174,-10.06766 -26.37695,-9.39363 -53.66257,-21.04075 -79.46834,-33.92183 -11.48439,-5.7325 -21.93931,-10.01795 -23.23312,-9.52328 -3.1115,1.18961 -23.20199,29.28535 -35.50517,49.65265 -12.7361,21.08409 -26.68952,50.90498 -35.61281,76.11076 -7.34687,20.75258 -18.3793,63.84212 -18.3793,71.78402 0,3.07962 2.57994,6.38991 8.17046,10.48359 9.91336,7.25897 19.73732,19.2898 22.92611,28.07607 l 2.35771,6.49604 h 79.21653 79.21652 z m 114.88256,13.89458 c 7.5535,-2.62935 14.14947,-5.19497 14.65771,-5.70134 0.50826,-0.50639 -4.71068,-6.87196 -11.59763,-14.14569 -21.34302,-22.5417 -34.18375,-45.04196 -40.67037,-71.26499 -3.80128,-15.3672 -4.02315,-49.60048 -0.4296,-66.28267 1.39994,-6.49881 2.01838,-12.61696 1.37432,-13.5959 -0.64405,-0.97895 -4.86423,-2.35453 -9.37819,-3.05687 -7.69653,-1.19753 -8.33302,-0.94749 -10.23013,4.01887 -8.33838,21.82872 -22.80492,130.19588 -22.88879,171.45726 -0.006,3.06129 2.83023,3.35195 32.71112,3.35195 29.93478,0 33.8862,-0.40665 46.45156,-4.78062 z m 284.16664,-0.48674 c -0.079,-46.53985 -16.0286,-163.30781 -23.5584,-172.47164 -2.03352,-2.47482 -12.22509,-1.55853 -15.40746,1.38524 -0.81777,0.75642 -0.169,7.61744 1.44183,15.24666 4.19412,19.86492 3.7881,47.968 -0.96025,66.467 -7.07584,27.56663 -17.25809,45.53788 -39.13254,69.06727 -7.00143,7.53113 -12.72989,14.12679 -12.72989,14.65701 0,0.53022 2.8116,2.01336 6.248,3.29588 3.4364,1.28249 9.27588,3.48381 12.97661,4.89181 4.60735,1.75292 16.88038,2.58649 38.92983,2.64406 l 32.20121,0.0841 -0.009,-5.26736 z m 201.95524,-4.49682 c 4.233,-9.00419 22.7031,-28.54393 26.9814,-28.54393 2.6493,0 2.1769,-5.87147 -2.2052,-27.40504 -8.0672,-39.64179 -28.1779,-90.79541 -50.0435,-127.29073 -9.8063,-16.36727 -33.8966,-50.25261 -35.7265,-50.25261 -0.5076,0 -13.1809,5.70848 -28.1629,12.68551 -28.23625,13.14938 -76.79315,32.96345 -91.3308,37.26824 -9.68812,2.8688 -9.54807,-1.02057 -1.47739,41.02801 8.11575,42.28344 16.52413,113.61427 16.53878,140.30345 l 0.006,11.97128 h 80.41471 80.4148 z M 746.14457,666.82023 c 23.34515,-7.23431 49.73718,-29.11748 60.39895,-50.08023 19.19746,-37.74536 11.61474,-86.09507 -18.2404,-116.30605 -18.85127,-19.07597 -39.33176,-28.40808 -66.46741,-30.28644 -45.14074,-3.12472 -86.63805,24.33338 -101.89776,67.42406 -6.21649,17.55423 -6.63691,44.33962 -0.98227,62.58004 9.46478,30.5309 37.01237,57.8725 68.27574,67.76519 12.45062,3.93975 44.59148,3.34152 58.91315,-1.09657 z M 266.12363,651.59567 c 0.60461,-0.97466 3.20455,-11.9643 5.77776,-24.42142 11.52803,-55.80808 33.90798,-109.20598 66.08882,-157.68543 33.78802,-50.90072 88.08119,-103.71658 138.66384,-134.8909 47.33379,-29.17204 104.17655,-50.79415 159.15154,-60.53881 l 13.93785,-2.47059 v -22.89558 -22.89559 l -9.13169,1.25912 c -39.55533,5.45409 -104.97343,25.45319 -141.92142,43.38711 -35.1717,17.07179 -76.02303,43.45396 -104.56811,67.53109 -17.26216,14.56031 -52.5845,50.45474 -66.27472,67.34804 -50.37098,62.15663 -90.02961,147.92783 -101.84871,220.27164 -1.72098,10.53473 -3.55847,21.09339 -4.0833,23.46371 -0.94604,4.27386 -0.7711,4.30967 21.07747,4.30967 12.11727,0 22.52605,-0.79743 23.13067,-1.77206 z m 942.43977,-1.3065 c 0.6523,-1.6932 -1.107,-14.11861 -3.9092,-27.61201 C 1183.8839,522.66164 1142.256,442.75835 1074.6073,373.05676 1003.457,299.74735 913.88476,250.69292 815.21568,231.00035 c -33.21698,-6.6295 -34.10341,-6.55814 -35.70296,2.87478 -0.71281,4.20357 -0.68778,14.10968 0.0556,22.0136 l 1.35164,14.37076 6.98462,1.84559 c 3.84155,1.01507 15.42752,3.65567 25.74657,5.868 21.5203,4.61379 60.23681,17.33157 84.08973,27.6222 75.91877,32.75289 145.29172,91.19727 194.53982,163.89354 19.9616,29.46562 43.0464,77.22428 53.2359,110.13579 2.283,7.37432 5.0265,15.99364 6.0966,19.15406 1.0701,3.16041 3.6878,14.63322 5.8171,25.4951 6.1774,31.51256 3.7921,29.09396 28.6924,29.09396 17.7502,0 21.4507,-0.50762 22.4407,-3.07856 z m 84.5527,0.0923 c 1.8298,-4.75049 -4.7699,-43.30402 -12.7678,-74.58764 C 1259.5121,494.29385 1219.0427,414.22818 1167.1935,351.92524 1076.7874,243.29195 961.77563,174.35011 826.60981,147.76835 811.2782,144.75322 794.62488,141.72786 789.60245,141.0453 l -9.13169,-1.241 0.0261,15.91948 c 0.0402,24.35067 -0.92198,23.14469 21.71459,27.21804 93.25484,16.78087 176.47068,52.19981 242.77125,103.33013 27.491,21.20073 66.6112,58.51991 88.655,84.57342 42.4495,50.17088 81.9442,123.23062 102.3878,189.40288 6.7646,21.89569 17.3706,71.11796 17.3706,80.61606 0,10.43186 3.6956,12.50338 22.3059,12.50338 12.9574,0 16.4978,-0.60714 17.4141,-2.98627 z M 610.56395,470.8504 c 26.42367,-24.68592 34.58586,-29.84265 61.28779,-38.72072 l 23.06952,-7.67037 0.51703,-42.46845 0.51701,-42.46845 -4.36193,-1.37539 c -2.39909,-0.75646 -9.22357,-4.78887 -15.16553,-8.9609 -13.18332,-9.25644 -13.12704,-9.27737 -33.38339,12.40675 C 613.403,373.32356 584.24751,425.891 570.3082,472.73651 l -2.96118,9.95163 6.11329,1.89485 c 6.63385,2.05619 12.57397,3.48713 15.93092,3.83768 1.17026,0.12223 10.69799,-7.7844 21.17272,-17.57027 z m 243.60884,14.77693 c 7.2782,-1.28689 7.3598,-1.39742 6.08382,-8.2426 -3.42603,-18.37945 -30.83179,-76.98591 -48.07289,-102.80262 -12.64326,-18.93191 -42.10986,-50.66412 -47.04679,-50.66412 -1.84914,0 -6.4017,2.40672 -10.11679,5.34829 -3.71513,2.94154 -10.32238,6.95113 -14.68282,8.91022 l -7.92807,3.56194 v 41.38509 41.3851 l 16.82153,4.32138 c 20.00645,5.13954 42.15308,15.23748 54.22604,24.72481 4.804,3.77515 14.91508,13.30136 22.46908,21.16934 10.11019,10.53041 14.67599,14.02863 17.30215,13.25649 1.96218,-0.57692 6.88732,-1.63591 10.94474,-2.35332 z M 542.00647,443.58931 c 19.81969,-50.74397 33.8568,-77.20111 56.97954,-107.39502 6.7695,-8.83968 12.30821,-16.9584 12.30821,-18.04154 0,-2.79724 -6.75841,-0.92973 -36.52675,10.09316 -47.01574,17.40942 -87.03497,39.85274 -121.89985,68.3631 -15.28645,12.50028 -31.89709,28.45785 -31.89709,30.64318 0,3.84235 102.84747,47.04726 108.26348,45.48009 0.86176,-0.24937 6.60935,-13.36371 12.77246,-29.14297 z m 385.53254,20.1538 c 30.42068,-11.29631 77.38519,-31.85187 81.59469,-35.71264 1.747,-1.60233 -22.6306,-24.46129 -40.33842,-37.82539 -33.06446,-24.95374 -63.05288,-41.96878 -101.47236,-57.57407 -17.70332,-7.19077 -45.23636,-16.37465 -49.09082,-16.37465 -2.82474,0 -0.63554,3.82853 10.35697,18.11252 23.01453,29.90575 45.73239,72.90612 61.50586,116.4183 9.44959,26.06732 5.66334,24.75725 37.44408,12.95593 z m -200.70083,-169.1119 6.53229,-4.3865 V 175.92865 61.612647 l -4.33524,-4.318713 c -8.48203,-8.449675 -27.01836,-3.932597 -31.45684,7.665677 -2.6974,7.048639 -4.39432,152.073489 -2.24288,191.684509 l 1.7038,31.36952 6.18054,5.50204 c 7.54781,6.71924 14.76573,7.06014 23.61833,1.11553 z m 448.50602,811.92149 c -7.3428,-7.316 -8.4839,-14.8259 -3.6637,-24.1131 4.024,-7.7531 10.1953,-11.5135 18.8945,-11.5135 5.9141,0 8.8047,1.3455 13.9907,6.5124 5.5701,5.5495 6.5363,7.8367 6.5363,15.4705 0,7.3474 -1.0104,9.965 -5.6195,14.5571 -4.609,4.5921 -7.2364,5.5989 -14.6108,5.5989 -7.6619,0 -9.9575,-0.9628 -15.5275,-6.5123 z M 228.3713,359.39338 c -11.69816,-7.91988 -12.18724,-23.40667 -1.03466,-32.75655 5.20929,-4.36725 7.30939,-4.92284 15.60481,-4.12868 19.64409,1.88062 27.42121,21.60055 13.85094,35.12097 -8.26947,8.23916 -17.96809,8.8412 -28.42109,1.76426 z m 1037.0733,-78.98297 c -3.2377,-7.14828 -19.9315,-42.73355 -37.0976,-79.07837 -30.0063,-63.53103 -31.2811,-66.7226 -33.0284,-82.6926 -1.4731,-13.46348 -1.2301,-18.89567 1.2825,-28.667375 5.5159,-21.451404 22.0241,-41.342641 42.0024,-50.610333 8.8572,-4.108702 12.6733,-4.634632 33.748,-4.651211 23.0626,-0.01718 24.1013,0.161659 35.3045,6.110957 15.426,8.191791 26.8458,19.631585 34.3165,34.376421 5.099,10.063804 6.3255,15.029952 7.1136,28.799961 0.5525,9.65486 0.019,20.34197 -1.2772,25.46058 -1.9574,7.74488 -71.7249,158.54527 -75.1546,162.4444 -0.7278,0.82747 -3.9723,-4.34413 -7.2097,-11.49243 z m 20.5926,-150.4918 c 5.9031,-2.97589 13.4239,-15.82979 13.4662,-23.0154 0.067,-11.519166 -11.8006,-25.045733 -23.972,-27.320698 -14.111,-2.637517 -29.8251,11.299377 -29.8251,26.451888 0,9.77599 4.933,20.0129 11.3069,23.46403 6.2607,3.38981 22.6623,3.62726 29.024,0.42018 z"
     id="path213"
     inkscape:connector-curvature="0"
     inkscape:export-xdpi="96"
     inkscape:export-ydpi="96" />
</svg>
